<svg xmlns="http://www.w3.org/2000/svg" width="682.7" height="682.7" version="1.0" viewBox="0 0 512 512">
<path fill="#FFF" d="M90.5 52.2a52.4 52.4 0 0 0-34.4 27 49.6 49.6 0 0 0 8.4 54.6 48.5 48.5 0 0 0 84.5-33.3
48.7 48.7 0 0 0-58.5-48.3zM338 183a87.1 87.1 0 0 0-56 36.2l-4 6-.2-18.8-.3-18.9-40.7-.3-40.8-.2v274h85v-73.3c0-73
.5-84.9 3.6-97.2a46 46 0 0 1 23.6-31 61.4 61.4 0 0 1 41.2-1.5c11.1 4.2 19.4 14.5 23 28.6 3 11.7 3.6 27.9 3.6
100.6V460h85v-79.8c0-82.5-.6-100.7-4.1-120.2-8.2-46.5-31.8-71.1-74.6-77.5-13.5-2-33.6-1.8-44.3.5zM58 324v137h85V187H58v137z"/>
</svg>