<svg xmlns="http://www.w3.org/2000/svg" width="130.1" height="72.3" viewBox="1.8 -4.9 138.1 80.3">
<path fill="#0070ff" stroke="#0070ff" stroke-linecap="round" stroke-width=".9" d="m53
60-2.1 5.2V41.9H38q-1.7 0-2.7-.7a3.6 3.6 0 0 1-.4-.4 3.4 3.4 0 0 1-1-1.8 5.1 5.1 0 0 1-.2-1.1 5 5
0 0 1 .1-1.1q.2-.8.6-1.3a3 3 0 0 1 .5-.5q1-.8 2.6-.9a7.8 7.8 0 0 1 .5 0h17.3a6.4 6.4 0 0 1
1.2.1q.8.2 1.3.5a3.3 3.3 0 0 1 .7.5 3.5 3.5 0 0 1 .9 1.5l.2 1.2a7.4 7.4 0 0 1 0 .5v25.2q0 1.6-.5
2.8a4.9 4.9 0 0 1-.1.3 3.8 3.8 0 0 1-1.5 1.5 5 5 0 0 1-.7.3 44 44 0 0 1-4.4 1.5q-2.6.7-5.7 1.3a64.3
64.3 0 0 1-9.7 1 58.3 58.3 0 0 1-1.6 0Q23.9 72.3 16 68 8.1 63.6 4 55.5a37.1 37.1 0 0 1-3.2-10Q0 41
0 36.2q0-8.4 2.4-15a33.3 33.3 0 0 1 4.2-8.3 30 30 0 0 1 2.6-3.2 29 29 0 0 1 10.3-7 33.6 33.6 0 0 1
.6-.2 36.3 36.3 0 0 1 8.2-2 47.4 47.4 0 0 1 6.4-.5q6 0 11.8 1.6 5.8 1.5 10.6 5a5.9 5.9 0 0 1 1
.8l.7 1.2a3.6 3.6 0 0 1 .1.3 4.7 4.7 0 0 1 .2 1.4 5 5 0 0 1-.1 1.3q-.4 1.3-1.4 2.3-.9 1-2.3 1.2a3.1
3.1 0 0 1-.4 0q-1.2 0-2.5-.8a28.4 28.4 0 0 0-7.4-3.7 26.7 26.7 0 0 0-.8-.3 31.2 31.2 0 0 0-5.7-1
39.3 39.3 0 0 0-3.8-.2q-7.8 0-13.2 3.2a19.8 19.8 0 0 0-7.7 8.7 24.1 24.1 0 0 0-.3.6 29.3 29.3 0 0
0-2 6.4q-.7 3.8-.7 8.2 0 9 2.9 15a20.8 20.8 0 0 0 3.4 5.2 20 20 0 0 0 9.3 5.7q4.2 1.2 9.4 1.2 4.5
0 8.9-.8Q49 61.6 53 60Zm22.5 6.8V6.2a7.7 7.7 0 0 1 .1-1.5q.2-1 .7-1.6a4 4 0 0 1 .6-.9 4.6 4.6 0 0 1
2-1q.8-.3 1.6-.3a9 9 0 0 1 .3 0h23.9a38.6 38.6 0 0 1 6.8.6q3.8.7 6.8 2.2a19 19 0 0 1 4 2.6 17.6 17.6
0 0 1 5.7 10 26.3 26.3 0 0 1 .5 5.3 24.6 24.6 0 0 1-.5 5.3 18.6 18.6 0 0 1-2.3 5.7 17.4 17.4 0 0
1-6.9 6.4 21.6 21.6 0 0 1-1.3.6q-4.9 2.2-11.6 2.4a45.3 45.3 0 0 1-1.2 0l.9-1.4h2.6q4 0 7 2a13.3 13.3
0 0 1 2.4 2.2q1 1.1 2 2.6a27.6 27.6 0 0 1 .9 1.6l8.6 16q1 1.8 1 3.5-.1 1.6-1.3 2.6-1 .8-2.6 1a8 8 0
0 1-.6 0 8.3 8.3 0 0 1-1.5-.1l-1.5-.5a4.5 4.5 0 0 1-.5-.3 7 7 0 0 1-1.3-1.1l-.9-1.3a13 13 0 0
1-.3-.5l-10.5-19.4q-2.1-3.9-4.8-5.3-2.7-1.3-7.1-1.3H85.9v24.5a7.7 7.7 0 0 1-.2 1.6q-.1 1-.6 1.7a4.3
4.3 0 0 1-.5.6 4.1 4.1 0 0 1-1.8 1.1l-1.5.3a8.8 8.8 0 0 1-.6 0 7.2 7.2 0 0
1-1.5-.2q-1.4-.3-2.4-1.2a4.6 4.6 0 0 1-1-2q-.3-.8-.3-1.6a9 9 0 0 1 0-.3ZM85.9 9.2v25.3H103a28.9 28.9
0 0 0 4.3-.3q2.2-.3 4-1a12 12 0 0 0 3.2-1.9 10.3 10.3 0 0 0 3.5-5.7q.4-1.7.4-3.8a15.7 15.7 0 0
0-.4-3.7 10.3 10.3 0 0 0-3.5-5.7 12.5 12.5 0 0 0-4-2.2q-1.8-.6-4-.8a30.3 30.3 0 0 0-3.5-.2H85.9Z"
font-size="12" style="stroke:#0070ff;stroke-width:.25mm;fill:#0070ff" vector-effect="non-scaling-stroke"/>
</svg>