<svg xmlns="http://www.w3.org/2000/svg" width="682.7" height="682.7" version="1.0" viewBox="0 0 512 512">
<g fill="#FFF"><path d="M37.5 76.7c-1.1.2-4.2 1.1-6.9 2l-4.8 1.5 53.8 54c90.8 90.9 149.4 148.1 154.8
151.1a44.8 44.8 0 0 0 43.2 0c5.4-3 64-60.2 154.8-151.1l53.8-53.9-4.8-1.9c-4.7-1.8-12-1.9-223.4-2-120.2-.1-219.4
0-220.5.3zm-35.1 30C.6 111.3.5 118 .2 253 0 394.4.1 399.7 3.3 407.4l1.2 2.8 77.5-77
77.5-77.1-44-44.1c-24.2-24.3-59.1-59-77.6-77.1L4.2 102l-1.8 4.7zm427.5 72.2L352.5 256l77.4 77.1c57.6 57.2 77.7
76.7 78.3 75.6.4-.8 1.4-4.1 2.3-7.3 1.3-5.1 1.5-23.8 1.5-145.4
0-121.6-.2-140.3-1.5-145.4-.9-3.2-1.9-6.5-2.3-7.3-.6-1.1-20.7 18.4-78.3 75.6z"/>
<path d="m102.9 354.8-77.4 76.9 5.5 1.9c5.3 1.8 11.6 1.9 225 1.9 211.9 0 219.7-.1
224.9-1.9l5.3-1.8-43.8-44c-24.2-24.2-59.1-58.8-77.7-77L331 277.7l-13.8 13.4a194.7 194.7 0 0 1-19.6 17.3 76 76 0
0 1-70.7 6.7c-10.2-4.3-17.3-9.6-32-23.9a285.2 285.2 0 0 0-14.2-13.2c-.2 0-35.3 34.6-77.8 76.8z"/></g>
</svg>