<?xml version="1.0" standalone="no"?>
<!DOCTYPE svg PUBLIC "-//W3C//DTD SVG 20010904//EN"
 "http://www.w3.org/TR/2001/REC-SVG-20010904/DTD/svg10.dtd">
<svg version="1.0" xmlns="http://www.w3.org/2000/svg"
 width="512.000000pt" height="512.000000pt" viewBox="0 0 512.000000 512.000000"
 preserveAspectRatio="xMidYMid meet">

<g transform="translate(0.000000,512.000000) scale(0.100000,-0.100000)"
fill="#FFFFFF" stroke="none">
<path d="M1567 4786 c-58 -21 -103 -61 -131 -118 -26 -51 -26 -55 -26 -276 0
-142 4 -239 12 -263 15 -52 68 -113 122 -138 43 -21 48 -21 804 -19 l760 3 43
30 c24 17 57 53 74 79 l30 49 3 216 c5 264 -2 301 -64 370 -76 85 -35 81 -863
81 -580 -1 -734 -4 -764 -14z"/>
<path d="M832 4366 c-150 -37 -294 -149 -365 -283 -72 -137 -67 -18 -67 -1733
0 -1699 -4 -1594 61 -1723 38 -75 161 -200 236 -240 28 -15 86 -36 129 -47 74
-19 113 -20 864 -20 l787 0 -14 63 c-17 70 -15 86 43 415 24 135 42 208 60
245 21 42 164 190 717 743 687 685 693 691 777 733 47 23 113 47 148 54 l62
12 0 635 c0 705 -1 714 -65 848 -46 97 -152 205 -245 250 -102 49 -167 62
-321 62 l-136 0 -5 -137 c-4 -111 -10 -150 -28 -198 -60 -158 -186 -271 -340
-304 -40 -9 -261 -11 -830 -9 l-775 3 -78 37 c-53 26 -97 56 -136 96 -104 104
-141 207 -141 394 l0 118 -142 -1 c-79 0 -167 -6 -196 -13z m2197 -1290 c56
-54 64 -134 20 -190 -46 -58 -6 -56 -891 -56 -780 0 -814 1 -842 19 -87 58
-89 189 -3 242 31 19 53 19 859 17 l827 -3 30 -29z m-883 -797 c107 -51 106
-210 -2 -255 -49 -21 -773 -20 -812 0 -49 26 -75 62 -80 114 -7 73 30 133 94
152 16 4 193 9 393 9 349 1 367 0 407 -20z"/>
<path d="M4223 2331 c-29 -11 -67 -29 -85 -42 -44 -29 -228 -211 -228 -224 0
-13 512 -525 526 -525 5 0 58 49 117 108 140 143 162 187 162 327 0 88 -3 107
-27 157 -34 74 -113 152 -186 186 -77 35 -203 41 -279 13z"/>
<path d="M3253 1418 c-359 -361 -473 -481 -481 -508 -6 -19 -27 -131 -47 -248
-30 -178 -34 -219 -25 -247 13 -39 59 -82 98 -92 21 -5 415 54 487 74 11 3
237 222 503 486 l482 482 -262 262 c-145 145 -267 263 -273 263 -6 0 -222
-213 -482 -472z"/>
</g>
</svg>
