<svg xmlns="http://www.w3.org/2000/svg" width="98" height="49" fill="none" viewBox="0 0 97 49">
<path fill="#FFF" d="m96 29.6-.5-.1c-.3 0-.5 0-.8.2l-.5.5-.9 1.6c-.4.8-1 1.5-1.5 2.1L90 35.7a.4.4
0 0 1-.4.1.4.4 0 0 1-.2-.4L90 31l.3-2 .3-3 1-7.3c0-.5 0-1.5-.6-2-.2-.3-.6-.5-1-.5-.3 0-.6 0-1
.2-.8.6-1.1 2-1.4 3-.6 2.5-.7 5-1.9 7.3l-.8 1.2a3 3 0 0 1-.7.7c-.3.2-.7.3-1 .3a1.4 1.4 0 0
1-1-.9l-.2-1.3c0-2.1.2-4.3 1-6.4l.3-1.5c.2-.6.2-1.5-.4-2a2.1 2.1 0 0 0-2-.6 2.6 2.6 0 0 0-1.5
1.6c-.8 1.9-1 3.8-1.3 5.8a9.6 9.6 0 0 1-4.2 7h-.7a1.5 1.5 0 0 1-1.1-.8c-.2-.4-.4-.8-.4-1.3a13 13
0 0 1-.2-2.4c0-.9 0-1.8.2-2.6.3-1.6 2.7-7.8 3.3-9.4l1.4-5c.3-1.5.5-3 .4-4.6 0-1.1-.2-2.3-1.1-3a2.5
2.5 0 0 0-2.5-.1A4 4 0 0 0 71.4 3a51.3 51.3 0 0 0-2 7.6l-.8 5-1 7.5c-.3 1.1-.7 2.2-1.2 3.2-.6 1-1
2.1-1.7 3.1-.1.4-.4.7-.7 1a1 1 0 0 1-1 .1 1.5 1.5 0 0 1-.7-1.2c-.3-1.7 0-3.5.3-5.2.3-1.7 1.8-9.6
2-11.4.5-2.1 1-4.2 1.2-6.4.1-1.5.4-3.5-.8-4.7a2 2 0 0 0-1.8-.6c-.6.2-1.2.6-1.5 1.2-.5.6-.8 1.2-1
1.9-.5 1.2-.8 2.4-1.1 3.6l-.1.6a45.2 45.2 0 0 0-1 7.1l-.1 1.3-.1 1-.2.2c-.4.2-.9.3-1.3.2a6.4 6.4
0 0 0-5.4 3 14 14 0 0 0-1.6 3.4l-.2.6a13.1 13.1 0 0 1-3.7 5.5c-.6.6-1.3 1-2 1a2.5 2.5 0 0
1-2.2-.7c-.5-.6-.8-1.4-.9-2.2l.1-.6a1.2 1.2 0 0 1 1-.4 6.5 6.5 0 0 0 5.5-4c.5-1.3.7-2.8.4-4.2a3.9
3.9 0 0 0-2.3-3.2 5.2 5.2 0 0 0-4 0c-2.4 1-3.9 3-4.6 6.2v.4c-.5 2-1 4-2.4 5.4a1.7 1.7 0 0 1-1.5.6.7.7
0 0 1-.4-.3c-.4-.7 0-2.2.6-4l.4-1.5c0-.7-.1-1.4-.5-2-.3-.6-.8-1-1.4-1.3-.6-.2-1.3-.3-2-.2H29a.8.8
0 0 1-.6-.6v-1l.1-.2A1.5 1.5 0 0 0 28 16 2 2 0 0 0 26 16c-.6.3-1.1.8-1.5 1.4-.3.6-.4 1.2-.4 2
.2.5.3 1.2.2 1.8a8 8 0 0 1-1.5 3l-.5.6c-.8 1.2-1.7 2.3-2.8 3.3a11 11 0 0 1-5 2.7c-3
.7-6-.2-7.6-3-.9-1.5-1.4-3.3-1.4-5-.3-3.5.3-7 1.7-10 1.3-3.1 3.3-6.2 6.9-6.6 1.4-.1 3 .4 3.6
1.6.5 1 .3 2 0 3s-.7 2-.7 3 .5 2.2 1.5 2.5c1 .3 2-.3 2.6-1.1.5-.9.7-1.9 1-2.8.5-2.3 1.4-4.5
2.6-6.6.5-1 1.2-2 1-3A2.2 2.2 0 0 0 24.2 1a2.2 2.2 0 0 0-2.1.6c-.6.6-.8 1.5-1.6
1.7-.7.3-1.4-.2-2-.5a9.3 9.3 0 0 0-7.9-.2 14 14 0 0 0-6 5.2 23.3 23.3 0 0 0-3.2 20c.5 1.5 1.3
3 2.2 4.4 1 1.3 2.3 2.3 3.8 3a11.7 11.7 0 0 0 9.5-.4 20.5 20.5 0 0 0 10.3-11.2l.5-.5a.7.7 0 0 1
.8.1l.5.5c.2.5.2 1 0 1.4l-.4 1.3c-.5 1.7-.9 3.2-.6 4.7.2.8.5 1.5 1 2.1.5.6 1.3 1 2 1.1 1 .1 2 0
3-.5a6.7 6.7 0 0 0 2.2-1.8c.2-.2.4-.6.8-.6a.6.6 0 0 1 .4.3l.2.4a5.9 5.9 0 0 0 5.4 3.4h.3a7 7 0
0 0 3.1-.9c1-.6 2-1.3 2.9-2.2l.2-.2a.4.4 0 0 1 .4.2l.2.4a4.4 4.4 0 0 0 3.3 2.6 4.4 4.4 0 0 0
4-1.4l.6-.7a1 1 0 0 1 1-.2c.4.2.5.7.7 1a2.7 2.7 0 0 0 2.4 1.6c1.2 0 2.3-.5 3-1.4a21.4 21.4 0
0 0 2.6-2.8.5.5 0 0 1 .5 0l.3.4a4.3 4.3 0 0 0 4 2.6c1.7-.1 3.3-.9 4.4-2.1.4-.4.8-.7 1.3-.9.6
0 .8.5 1 1 .2.5.6 1 1 1.3a2.6 2.6 0 0 0 2.2.4c.8-.2 1.5-.7 2-1.3L85 32c.3-.4.5 0 .5.4v1.4c0 1-.1
1.9-.3 2.8 0 .3 0 .5-.2.7a1.1 1.1 0 0 1-1 .3l-1.3-.1h-.6l-2.4-.2H79c-1.4 0-2.8.1-4 .6a6.8 6.8 0
0 0-4.1 4 5 5 0 0 0 1 4.9 6.5 6.5 0 0 0 4.5 2.3c1.8 0 3.6-.3 5.2-1a11.8 11.8 0 0 0 6.8-8h.1a12
12 0 0 0 5.9-4.3l1-1.5.8-1.6c.3-.3.5-.8.6-1.2a1.7 1.7 0 0
0-.3-1.3c-.1-.3-.3-.4-.6-.5m-54.8-6.5.3-.9c.2-.7.5-1.4 1-2l.5-.5c.2-.2.5-.2.8-.2a1.1 1.1 0 0 1
.8 1c0 .7-.1 1.5-.5 2.2-.2.6-.7 1.2-1.2 1.6l-.7.5h-.5a.5.5 0 0 1-.6-.3l.1-1.4m17.3-.8v1a33.8 33.8
0 0 0 0 3c0 .7.1 1.2-.1 1.8a4.4 4.4 0 0 1-2.3 2.6l-1 .2h-.2a1.3 1.3 0
0 1-1-.7c-.3-.4-.4-.7-.5-1.1-.3-1.5-.2-3 .3-4.5a6 6 0 0 1 1.5-2.4c.6-.6 1.4-1 2.3-1a1.1 1.1 0 0
1 .8.3c.2.2.3.4.2.7v.1M84.2 41l-.3.6a6 6 0 0 1-.7 1L82 43.6c-1 .7-2 1.2-3.1 1.5-.7.2-1.3.3-2
.3h-.1c-.8 0-1.5-.3-2.1-.7-.3-.3-.6-.6-.7-1 0-.5 0-.9.2-1.2.4-.7.9-1.3 1.6-1.6 1.3-.6
2.7-.8 4-.6h1.7l1.3.1h.7l.5.1c.2 0 .2.2.2.3"/>
<path fill="#FFF" d="M29.6 44.6v-5h.7v1.9a1.5 1.5 0 0 1 1.2-.6c1 0 1.7.7 1.7 1.9s-.7 1.9-1.7
1.9a1.5 1.5 0 0 1-1.2-.6v.5h-.7Zm.7-1a1.2 1.2 0 0 0 1 .5c.7 0 1.1-.5 1.1-1.3s-.4-1.3-1-1.3a1.3
1.3 0 0 0-1 .5v1.6ZM34.1 45.4h.3a.5.5 0 0 0 .6-.3l.2-.5-1.5-3.6h.7l1.2 2.8 1.1-2.8h.7l-1.8 4.3a1.2
1.2 0 0 1-1.1.8 2 2 0 0 1-.5 0l.1-.7ZM40.3 44.6v-5h2.1a1.5 1.5 0 0 1 1.7 1.5 1.5 1.5 0 0 1-1.7
1.6h-1.3v2h-.8Zm2-4.4h-1.2V42h1.3a.9.9 0 1 0 0-1.8ZM46.5 40.9c1.1 0 1.8.8 1.8 2v.1h-2.9a1.2 1.2
0 0 0 1.3 1.1c.4 0 .8-.1 1-.4l.4.4a2 2 0 0 1-1.5.6 1.8 1.8 0 0 1-1.9-2 1.8 1.8 0 0 1 1.8-1.8Zm-1
1.6h2.1a1 1 0 0 0-1-1 1.1 1.1 0 0 0-1.2 1ZM51.6 44.6v-.4a1.6 1.6 0 0 1-1.2.5 1.2 1.2 0 0 1-.9-2
1.2 1.2 0 0 1 1-.4 1.5 1.5 0 0 1 1.1.5v-.6c0-.5-.4-.8-.9-.8a1.5 1.5 0 0 0-1 .5l-.4-.4a2 2 0 0 1
1.5-.6c.8 0 1.5.3 1.5 1.2v2.5h-.7Zm0-1.4a1.2 1.2 0 0 0-1-.4.8.8 0 0 0-.8.7.8.8 0 0 0 .9.7 1.2 1.2
0 0 0 1-.4v-.6ZM53.6 44.6V41h.7v.5a1.5 1.5 0 0 1 1.2-.6v.7h-.3a1.3 1.3 0 0 0-1 .5v2.5h-.6ZM56.3
43.6c.4.4.8.6 1.3.6s.8-.3.8-.6-.5-.4-1-.6c-.6-.1-1.3-.3-1.3-1 0-.6.5-1.1 1.4-1.1.5 0 1 .1
1.4.5l-.3.5a1.4 1.4 0 0 0-1-.5c-.5 0-.8.2-.8.5s.4.4.8.5c.7.2 1.4.3 1.4 1.2 0 .6-.5 1.1-1.5 1.1a2
2 0 0 1-1.5-.6l.3-.5ZM59.8 42.8a1.8 1.8 0 0 1 1.9-2 1.8 1.8 0 0 1 1.8 2 1.8 1.8 0 0 1-1.8 1.9 1.8
1.8 0 0 1-1.9-2Zm3 0a1.2 1.2 0 0 0-1.1-1.3 1.2 1.2 0 0 0-1.2 1.3 1.2 1.2 0 0 0 1.2 1.3 1.2 1.2 0
0 0 1.1-1.3ZM67 44.6v-2.3c0-.6-.3-.8-.7-.8a1.3 1.3 0 0 0-1 .5v2.6h-.7V41h.7v.5a1.7 1.7 0 0 1
1.3-.6 1 1 0 0 1 1.1 1.1v2.6h-.6Z"/>
</svg>