<svg xmlns="http://www.w3.org/2000/svg" width="682.7" height="682.7" version="1.0" viewBox="0 0 512 512">
<path fill="#FFF" d="M120.1 36.9c-1.8.5-2.9 2-4.3 6.1a104.9 104.9 0 0 0-2.6 62.7l2.1 7.3-3.7 4.1a113 113
0 0 0-22.4 42.6c-2.6 9.4-2.7 10.7-2.7 32.8.1 17.5.5 25.2 1.8 32.2 8 42.5 27.8 70.3 62.2 87.5 14.1 7.1 36
13.4 54.5 15.8 5.2.6 10.1 1.4 10.8 1.6.8.2-.4 2.4-3.3 5.9-6 7.4-9.2 13.9-11.8 24.3l-2.2 8.7-7.5 2.7c-31.2
11-57.2 2.3-75.4-25.4-10.5-16-24.1-26.4-38.8-29.4-10.1-2.1-19.8-.1-19.8 4.1 0 2.4 5.6 8 12.9 13a81.2 81.2
0 0 1 28.3 35.4l6.1 13.1c1.2 2.4 6 8.3 10.7 13.1a62.4 62.4 0 0 0 31.5 18.1 81 81 0 0 0 23 2.2c8.3 0
17.9-.6 21.4-1.3 3.4-.7 6.6-1 6.9-.7.3.4.8 11.3 1 24.4.6 30-.1 32.4-9.5 35.7-3.2 1.2 6.1 1.3 62.7.9
74.5-.5 103.2-1.3 98.5-2.5-3.8-1-7.3-4.2-8-7.2-.2-1.2-.6-23.8-.8-50.2-.3-45.3-.4-48.4-2.4-55.6a70.8 70.8
0 0 0-12.1-24.6l-4.1-5.1 6.2-.6a260 260 0 0 0 42.8-9.6c51.3-17.1 76.8-52.3 82-113
3-35.6-4.8-64.1-24-87.7-4.6-5.7-5-6.5-4-9 6.1-16 5.4-44.4-1.4-64.8-2.8-8.2-4.2-8.9-15.1-7.5-16.9 2.3-34.1
9.2-56.1 22.5l-11 6.7-11.8-2.6c-23-5.1-31.3-6-60.2-6a219 219 0 0 0-61.6 6.1l-11.5 2.5-7.1-4.5a168.4 168.4
0 0 0-55.8-24.2c-9.4-1.6-10.7-1.7-14.4-.6z"/>
</svg>